<svg xmlns="http://www.w3.org/2000/svg" width="100" height="99" viewBox="0 0 100 99"><title>scholarship-app</title><path d="M77.61,23.06a4.8,4.8,0,0,0-4.56-3.12H56.18c-.18,0-.25-.06-.31-.25a4.48,4.48,0,0,0-.31-.81,6,6,0,0,0-6.12-3.5,5.88,5.88,0,0,0-5.25,4.25c-.06.31-.06.31-.44.31H26.89a4.46,4.46,0,0,0-3.75,1.87,4.36,4.36,0,0,0-.87,2.31v.25c0,.07,0,.19-.13.19V79c0,.07.06.19,0,.25v.25a4.13,4.13,0,0,0,.75,2.07,4.31,4.31,0,0,0,3.69,2.06H73.42a3.36,3.36,0,0,0,1.13-.13A4.56,4.56,0,0,0,76.86,82a4.23,4.23,0,0,0,1-2.69V24.37A3.24,3.24,0,0,0,77.61,23.06Zm-38.29.19c0-.19.12-.13.25-.13h5.87A1.49,1.49,0,0,0,47,21.88c.06-.32.06-.69.13-1a3,3,0,0,1,3.18-2.38,3.08,3.08,0,0,1,2.88,2.63c.06.25,0,.5.06.68a1.49,1.49,0,0,0,1.56,1.31h5.87c.25,0,.25.07.25.32v4.24a1.52,1.52,0,0,1-1.12,1.57,2.25,2.25,0,0,1-.63.06H41a1.7,1.7,0,0,1-1.32-.5,1.44,1.44,0,0,1-.37-.88ZM74.86,25V78.84a1.64,1.64,0,0,1-.56,1.37,1.23,1.23,0,0,1-.94.31H27.08a2.69,2.69,0,0,1-.69-.06,1.46,1.46,0,0,1-1.06-1.37V24.87a1.64,1.64,0,0,1,.12-.75,1.43,1.43,0,0,1,1.38-.93H36c.19,0,.19.12.19.25V28a4.6,4.6,0,0,0,3.93,4.43,3.69,3.69,0,0,0,.81.06H59.31a4.7,4.7,0,0,0,4.62-3.68,7.32,7.32,0,0,0,.12-1.06V23.5c0-.19.07-.25.25-.25h9a1.45,1.45,0,0,1,1.56,1.5Z" fill="#00a8da"/><path d="M56.81,54.71h9.44a1.56,1.56,0,0,1,1.56,1.12,1.54,1.54,0,0,1-1.44,1.94H47.88a3.17,3.17,0,0,1-.81-.07,1.59,1.59,0,0,1-1.19-1.62,1.62,1.62,0,0,1,1.56-1.44C50.57,54.71,53.69,54.71,56.81,54.71Z" fill="#00a8da"/><path d="M56.81,67.07h9.44a1.57,1.57,0,0,1,1.56,1.13,1.51,1.51,0,0,1-1.44,1.93H47.94a1.48,1.48,0,0,1-.75-.06A1.55,1.55,0,0,1,46,68.51,1.49,1.49,0,0,1,47.26,67h.31C50.57,67.07,53.69,67.07,56.81,67.07Z" fill="#00a8da"/><path d="M56.88,42.34h9.37a1.57,1.57,0,0,1,1.56,1.12,1.59,1.59,0,0,1-1.44,2H47.88A1.69,1.69,0,0,1,46,43.84a1.54,1.54,0,0,1,1.24-1.5h9.69Z" fill="#00a8da"/><path d="M41.45,65.07A1.59,1.59,0,0,0,39.82,64c-2,0-4,.06-6,0a1.61,1.61,0,0,0-1.63,1.63v6a1.58,1.58,0,0,0,1.63,1.63H40a1.55,1.55,0,0,0,1.56-1.56V65.57A1.46,1.46,0,0,0,41.45,65.07ZM38.39,70a.17.17,0,0,1-.19.19H35.45c-.12,0-.19,0-.19-.19V67.26a.17.17,0,0,1,.19-.19H38.2c.13,0,.19,0,.19.19Z" fill="#00a8da"/><path d="M39.76,51.58H33.58a.84.84,0,0,0-.38.06,1.58,1.58,0,0,0-1.06,1.57v6a1.65,1.65,0,0,0,1.69,1.69h5.93a1.68,1.68,0,0,0,1.69-1.69v-6A1.56,1.56,0,0,0,39.76,51.58Zm-1.37,4.69v1.37c0,.13,0,.19-.19.19H35.45a.17.17,0,0,1-.19-.19V54.89c0-.12.07-.12.19-.12H38.2a.17.17,0,0,1,.19.19Z" fill="#00a8da"/><path d="M39.76,39.15H33.58a.74.74,0,0,0-.38.07,1.56,1.56,0,0,0-1.06,1.56v6.06a1.68,1.68,0,0,0,1.69,1.68h3c1.06,0,2.06,0,2.93-.06a1.55,1.55,0,0,0,1.63-1.62V40.46A1.53,1.53,0,0,0,39.76,39.15Zm-1.37,6.06c0,.19-.06.19-.19.19-.44,0-.94.06-1.37.06H35.51c-.12,0-.18,0-.18-.19V42.53c0-.19.06-.19.18-.19H38.2a.17.17,0,0,1,.19.19Z" fill="#00a8da"/></svg>