<svg xmlns="http://www.w3.org/2000/svg" width="350" height="350" viewBox="0 0 350 350"><title>school-materials</title><rect x="102.43" y="246.67" width="0.71" height="41.05" fill="#ffa515"/><rect x="125.02" y="246.67" width="0.71" height="41.05" fill="#ffa515"/><path d="M208,302.16H52.18a1,1,0,0,1,0-1.92H208a1,1,0,1,1,0,1.92Z" fill="#ffa515" opacity="0.1"/><path d="M208,307.86H55.56a1,1,0,0,1,0-1.93H208a1,1,0,1,1,0,1.93Z" fill="#ffa515" opacity="0.1"/><path d="M208,313.76H52.75a1,1,0,0,1,0-1.93H208a1,1,0,1,1,0,1.93Z" fill="#ffa515" opacity="0.1"/><path d="M203.2,172.78H61a.83.83,0,0,1,0-1.65H203.2a.83.83,0,1,1,0,1.65Z" fill="#ffa515" opacity="0.1"/><path d="M200.1,179.07H61a.83.83,0,0,1,0-1.65H200.1a.83.83,0,0,1,0,1.65Z" fill="#ffa515" opacity="0.1"/><path d="M253.24,234.08a.55.55,0,0,1-.53-.41l-9.65-35.12a.56.56,0,0,1,.39-.68l55.3-15.19a.62.62,0,0,1,.42.06.52.52,0,0,1,.25.33l9.65,35.13a.53.53,0,0,1-.38.67l-55.3,15.19Zm-9-35.29,9.36,34.06L307.87,218l-9.36-34.07Z" fill="#009ed5"/><path d="M302.82,227.9a2.13,2.13,0,0,1-1-.28,2.11,2.11,0,0,1,.48-3.87l5.95-1.64a2.11,2.11,0,0,1,2.39,3.08,2.08,2.08,0,0,1-1.27,1l-5.95,1.63h0A2.1,2.1,0,0,1,302.82,227.9Zm.45-.48h0Zm5.5-4.56a1.27,1.27,0,0,0-.34,0l-5.95,1.63a1.29,1.29,0,0,0,.68,2.48l5.95-1.63a1.29,1.29,0,0,0-.34-2.53Z" fill="#ffa515"/><path d="M291.12,231.11a2.13,2.13,0,0,1-1-.28,2.08,2.08,0,0,1-1-1.27,2.12,2.12,0,0,1,1.48-2.6l5.94-1.63a2.11,2.11,0,1,1,1.12,4.07L291.68,231h0A2.16,2.16,0,0,1,291.12,231.11Zm.45-.47h0Zm5.49-4.56a1.37,1.37,0,0,0-.34,0l-5.94,1.63a1.29,1.29,0,0,0,.68,2.49l6-1.63a1.29,1.29,0,0,0-.35-2.53Z" fill="#ffa515"/><path d="M279.42,234.32a2.12,2.12,0,0,1-2-1.55,2.12,2.12,0,0,1,1.48-2.6l5.94-1.63a2.11,2.11,0,0,1,2.6,1.48,2.1,2.1,0,0,1-1.48,2.59L280,234.25h0A2.2,2.2,0,0,1,279.42,234.32Zm.45-.47h0Zm5.49-4.56a1.32,1.32,0,0,0-.34,0L279.08,231a1.29,1.29,0,1,0,.68,2.48l5.94-1.63a1.29,1.29,0,0,0-.34-2.53Z" fill="#ffa515"/><path d="M267.71,237.54a2.13,2.13,0,0,1-1-.28,2.12,2.12,0,0,1-.79-2.88,2.06,2.06,0,0,1,1.27-1l6-1.64a2.12,2.12,0,0,1,1.12,4.08l-6,1.63A2.1,2.1,0,0,1,267.71,237.54Zm6-5a1.33,1.33,0,0,0-.34.05l-5.95,1.63a1.31,1.31,0,0,0-.9,1.58,1.29,1.29,0,0,0,.61.78,1.32,1.32,0,0,0,1,.13h0L274,235a1.27,1.27,0,0,0,.78-.6,1.29,1.29,0,0,0-1.12-1.93Z" fill="#ffa515"/><path d="M256,240.75a2,2,0,0,1-1-.28,2.11,2.11,0,0,1,.48-3.87L261.4,235a2.11,2.11,0,0,1,2.59,1.47,2.11,2.11,0,0,1-1.47,2.6l-5.95,1.63h0A1.77,1.77,0,0,1,256,240.75Zm.45-.47h0Zm5.5-4.56a1.27,1.27,0,0,0-.34,0l-6,1.63a1.29,1.29,0,0,0,.68,2.49l5.95-1.63a1.29,1.29,0,0,0-.34-2.53Z" fill="#ffa515"/><g opacity="0.7"><path d="M306.53,240.12a2.49,2.49,0,0,1-1.27-.34,2.54,2.54,0,0,1-1.21-1.55l-.3-1.1a2.56,2.56,0,0,1,1.79-3.15l5.08-1.39a2.57,2.57,0,0,1,3.15,1.79l.3,1.1a2.57,2.57,0,0,1-1.79,3.16L307.2,240h0A2.57,2.57,0,0,1,306.53,240.12Zm.56-.49h0Zm4.2-6.31a1.88,1.88,0,0,0-.46.06l-5.07,1.39a1.75,1.75,0,0,0-1.22,2.14l.31,1.11a1.74,1.74,0,0,0,2.14,1.21l5.07-1.39a1.75,1.75,0,0,0,1.22-2.14l-.31-1.1A1.74,1.74,0,0,0,311.29,233.32Z" fill="#009ed5"/><path d="M295.33,243.88a3,3,0,0,1-1.5-.38,1.94,1.94,0,0,1-.94-1.18l-.44-1.71c-.31-1.2.7-2.52,2.26-2.93l4.38-1.17a3.24,3.24,0,0,1,2.47.25,1.9,1.9,0,0,1,.93,1.18l.45,1.71c.31,1.2-.71,2.52-2.27,2.93l-4.38,1.17h0A4,4,0,0,1,295.33,243.88Zm.86-.53h0Zm3.86-6.14a2.74,2.74,0,0,0-.74.1l-4.39,1.16c-1.1.3-1.87,1.18-1.67,1.93l.44,1.71a1.15,1.15,0,0,0,.55.67,2.43,2.43,0,0,0,1.84.17l4.38-1.17c1.1-.29,1.87-1.17,1.68-1.93l-.45-1.7a1.11,1.11,0,0,0-.55-.68A2.22,2.22,0,0,0,300.05,237.21Z" fill="#009ed5"/><path d="M283.49,248a2.58,2.58,0,0,1-2.48-1.88l-.3-1.11a2.57,2.57,0,0,1,1.8-3.15l5.07-1.39a2.56,2.56,0,0,1,3.15,1.79l.3,1.1a2.57,2.57,0,0,1-1.79,3.16l-5.07,1.39h0A2.71,2.71,0,0,1,283.49,248Zm.57-.49h0Zm4.2-6.31a1.82,1.82,0,0,0-.46.06l-5.08,1.4a1.73,1.73,0,0,0-1.21,2.14l.3,1.1a1.75,1.75,0,0,0,2.14,1.22l5.07-1.4a1.69,1.69,0,0,0,1.05-.82,1.74,1.74,0,0,0,.17-1.32l-.3-1.1A1.76,1.76,0,0,0,288.26,241.17Z" fill="#009ed5"/><path d="M271.6,250.45a2.49,2.49,0,0,1-1.26-.34,2.54,2.54,0,0,1-1.21-1.55l-.3-1.1a2.56,2.56,0,0,1,1.79-3.15l5.08-1.4a2.58,2.58,0,0,1,3.15,1.8l.3,1.1a2.56,2.56,0,0,1-1.79,3.15l-5.07,1.4A2.72,2.72,0,0,1,271.6,250.45Zm4.77-6.8a1.88,1.88,0,0,0-.46.06l-5.07,1.39a1.76,1.76,0,0,0-1.22,2.14l.31,1.1a1.69,1.69,0,0,0,.82,1,1.74,1.74,0,0,0,1.32.17h0l5.07-1.39a1.75,1.75,0,0,0,1.22-2.14l-.31-1.1a1.69,1.69,0,0,0-.82-1.05A1.73,1.73,0,0,0,276.37,243.65Z" fill="#009ed5"/><path d="M259.71,253a2.57,2.57,0,0,1-2.47-1.89l-.3-1.1a2.57,2.57,0,0,1,1.79-3.16l5.07-1.39a2.58,2.58,0,0,1,3.16,1.8l.3,1.1a2.58,2.58,0,0,1-1.79,3.15l-5.08,1.39A2.24,2.24,0,0,1,259.71,253Zm4.77-6.81a1.47,1.47,0,0,0-.46.07L259,247.63a1.69,1.69,0,0,0-1.05.82,1.74,1.74,0,0,0-.17,1.32l.31,1.1a1.73,1.73,0,0,0,2.13,1.22h0l5.08-1.39a1.79,1.79,0,0,0,1.05-.82,1.7,1.7,0,0,0,.16-1.32l-.3-1.11a1.75,1.75,0,0,0-1.68-1.28Z" fill="#009ed5"/><path d="M309.29,250.09a2.57,2.57,0,0,1-1.29-.34,2.61,2.61,0,0,1-1.22-1.56l-.32-1.19a2.59,2.59,0,0,1,1.81-3.19l5-1.38a2.61,2.61,0,0,1,3.19,1.81l.32,1.19a2.59,2.59,0,0,1-1.81,3.19L310,250h0A2.59,2.59,0,0,1,309.29,250.09Zm.57-.49h0Zm4.12-6.44a1.49,1.49,0,0,0-.47.07l-5,1.37a1.78,1.78,0,0,0-1.24,2.18l.33,1.19a1.73,1.73,0,0,0,.83,1.06,1.7,1.7,0,0,0,1.34.17l5-1.37a1.78,1.78,0,0,0,1.24-2.18l-.33-1.19A1.77,1.77,0,0,0,314,243.16Z" fill="#009ed5"/><path d="M298,253.87a2.89,2.89,0,0,1-1.5-.39,2,2,0,0,1-1-1.22l-.45-1.75c-.32-1.23.69-2.57,2.24-3l4.39-1.17a3.22,3.22,0,0,1,2.44.26,2,2,0,0,1,1,1.22l.45,1.75a2.68,2.68,0,0,1-2.24,3l-4.39,1.17A3.38,3.38,0,0,1,298,253.87Zm4.64-6.81a2.6,2.6,0,0,0-.72.1l-4.38,1.17c-1.11.29-1.87,1.19-1.67,2l.46,1.75a1.21,1.21,0,0,0,.58.72,2.44,2.44,0,0,0,1.82.17h0l4.38-1.16c1.11-.3,1.87-1.2,1.66-2l-.45-1.75a1.24,1.24,0,0,0-.58-.72A2.19,2.19,0,0,0,302.62,247.06Z" fill="#009ed5"/><path d="M286.24,257.92a2.6,2.6,0,0,1-2.5-1.91l-.33-1.19a2.6,2.6,0,0,1,1.82-3.19l5-1.38a2.6,2.6,0,0,1,2,.25,2.56,2.56,0,0,1,1.22,1.57l.33,1.19a2.6,2.6,0,0,1-1.82,3.19l-5,1.37h0A2.35,2.35,0,0,1,286.24,257.92Zm.58-.49h0Zm4.11-6.44a1.89,1.89,0,0,0-.47.06l-5,1.38a1.76,1.76,0,0,0-1.24,2.17l.33,1.19a1.77,1.77,0,0,0,2.17,1.24l5-1.38a1.73,1.73,0,0,0,1.06-.83,1.7,1.7,0,0,0,.17-1.34l-.32-1.19a1.78,1.78,0,0,0-.83-1.07A1.86,1.86,0,0,0,290.93,251Z" fill="#009ed5"/><path d="M274.36,260.41a2.6,2.6,0,0,1-2.5-1.91l-.33-1.19a2.6,2.6,0,0,1,1.82-3.19l5-1.37a2.58,2.58,0,0,1,3.18,1.81l.33,1.19a2.56,2.56,0,0,1-.25,2,2.61,2.61,0,0,1-1.56,1.22l-5,1.38A2.72,2.72,0,0,1,274.36,260.41Zm4.69-6.93a2,2,0,0,0-.47.06l-5,1.38a1.77,1.77,0,0,0-1.24,2.17l.33,1.19a1.78,1.78,0,0,0,2.17,1.24h0l5-1.38a1.76,1.76,0,0,0,1.23-2.17l-.32-1.19A1.77,1.77,0,0,0,279.05,253.48Z" fill="#009ed5"/><path d="M262.48,263A2.61,2.61,0,0,1,260,261l-.32-1.19a2.59,2.59,0,0,1,1.81-3.19l5-1.37a2.57,2.57,0,0,1,2,.24,2.63,2.63,0,0,1,1.22,1.57l.32,1.19a2.52,2.52,0,0,1-.25,2,2.61,2.61,0,0,1-1.56,1.22l-5,1.38h0A2.71,2.71,0,0,1,262.48,263Zm.57-.49h0Zm4.11-6.44a1.82,1.82,0,0,0-.46.06l-5,1.38a1.77,1.77,0,0,0-1.24,2.17l.33,1.19a1.77,1.77,0,0,0,2.17,1.24l5-1.38a1.77,1.77,0,0,0,1.24-2.17l-.33-1.19a1.75,1.75,0,0,0-.83-1.07A1.81,1.81,0,0,0,267.16,256Z" fill="#009ed5"/><path d="M312.11,260.22a2.68,2.68,0,0,1-2.56-2l-.38-1.38a2.67,2.67,0,0,1,1.86-3.26l4.9-1.35a2.67,2.67,0,0,1,3.27,1.86l.37,1.37a2.66,2.66,0,0,1-1.85,3.27l-4.91,1.34A2.42,2.42,0,0,1,312.11,260.22Zm4.52-7.21a2,2,0,0,0-.48.07l-4.9,1.35a1.82,1.82,0,0,0-1.28,2.24l.38,1.38a1.79,1.79,0,0,0,.86,1.1,1.85,1.85,0,0,0,1.38.18h0L317.5,258a1.84,1.84,0,0,0,1.28-2.25l-.38-1.37A1.84,1.84,0,0,0,316.63,253Z" fill="#009ed5"/><path d="M300.71,264a3,3,0,0,1-1.51-.39,2.15,2.15,0,0,1-1-1.31l-.49-1.85a2.73,2.73,0,0,1,2.23-3.08l4.38-1.17a3.16,3.16,0,0,1,2.41.27,2.18,2.18,0,0,1,1,1.31l.48,1.85a2.71,2.71,0,0,1-2.22,3.08l-4.38,1.17h0A3.54,3.54,0,0,1,300.71,264Zm.79-.52h0Zm3.69-6.57a2.72,2.72,0,0,0-.69.09l-4.38,1.16c-1.1.3-1.85,1.25-1.64,2.08l.49,1.85a1.33,1.33,0,0,0,.64.81,2.42,2.42,0,0,0,1.79.18l4.38-1.16c1.1-.3,1.85-1.25,1.63-2.08l-.48-1.85a1.34,1.34,0,0,0-.65-.81A2.18,2.18,0,0,0,305.19,256.94Z" fill="#009ed5"/><path d="M289.07,268.05a2.67,2.67,0,0,1-2.56-1.95l-.38-1.38a2.67,2.67,0,0,1,1.86-3.26l4.9-1.35a2.66,2.66,0,0,1,2,.26,2.6,2.6,0,0,1,1.25,1.6l.38,1.37a2.66,2.66,0,0,1-1.86,3.27l-4.9,1.34A2.42,2.42,0,0,1,289.07,268.05Zm4.52-7.21a2,2,0,0,0-.48.07l-4.9,1.35a1.84,1.84,0,0,0-1.11.86,1.8,1.8,0,0,0-.17,1.38l.38,1.38a1.76,1.76,0,0,0,.86,1.1,1.8,1.8,0,0,0,1.38.18h0l4.9-1.35a1.82,1.82,0,0,0,1.28-2.25l-.37-1.37A1.85,1.85,0,0,0,293.59,260.84Z" fill="#009ed5"/><path d="M277.19,270.54a2.67,2.67,0,0,1-2.56-2l-.38-1.37a2.66,2.66,0,0,1,1.86-3.26l4.9-1.35a2.66,2.66,0,0,1,2,.26,2.6,2.6,0,0,1,1.25,1.6l.38,1.37a2.66,2.66,0,0,1-1.86,3.26l-4.9,1.35h0A2.82,2.82,0,0,1,277.19,270.54Zm.59-.5h0Zm3.93-6.71a1.59,1.59,0,0,0-.48.07l-4.9,1.34a1.87,1.87,0,0,0-1.11.86,1.83,1.83,0,0,0-.17,1.39l.38,1.38a1.83,1.83,0,0,0,2.24,1.28l4.9-1.35a1.85,1.85,0,0,0,1.11-.86,1.83,1.83,0,0,0,.17-1.39l-.37-1.37a1.87,1.87,0,0,0-.86-1.11A1.85,1.85,0,0,0,281.71,263.33Z" fill="#009ed5"/><path d="M265.3,273.07a2.66,2.66,0,0,1-2.56-1.95l-.38-1.37a2.68,2.68,0,0,1,1.86-3.27l4.9-1.34a2.65,2.65,0,0,1,3.26,1.85l.38,1.38a2.65,2.65,0,0,1-1.85,3.26L266,273h0A2.8,2.8,0,0,1,265.3,273.07Zm.59-.49h0Zm3.93-6.71a2,2,0,0,0-.48.06l-4.9,1.35a1.84,1.84,0,0,0-1.28,2.25l.38,1.37a1.82,1.82,0,0,0,2.24,1.28l4.91-1.34a1.84,1.84,0,0,0,1.28-2.25l-.38-1.38A1.83,1.83,0,0,0,269.82,265.87Z" fill="#009ed5"/><path d="M314.78,270a2.64,2.64,0,0,1-1.3-.35,2.6,2.6,0,0,1-1.24-1.59l-.37-1.33a2.67,2.67,0,0,1,.26-2,2.64,2.64,0,0,1,1.59-1.24l4.93-1.35a2.64,2.64,0,0,1,3.24,1.84l.37,1.34a2.64,2.64,0,0,1-.26,2,2.6,2.6,0,0,1-1.59,1.24l-4.93,1.35A2.37,2.37,0,0,1,314.78,270Zm4.57-7.14a2,2,0,0,0-.48.06l-4.93,1.36a1.81,1.81,0,0,0-1.27,2.23l.36,1.33a1.83,1.83,0,0,0,.86,1.09,1.78,1.78,0,0,0,1.37.18h0l4.93-1.35a1.82,1.82,0,0,0,1.27-2.23l-.36-1.34A1.82,1.82,0,0,0,319.35,262.85Z" fill="#009ed5"/><path d="M304.07,273.26l4.39-1.16a2.33,2.33,0,0,0,1.93-2.56l-.48-1.83a2.28,2.28,0,0,0-2.92-1.26l-4.39,1.17a2.31,2.31,0,0,0-1.93,2.55l.48,1.83A2.27,2.27,0,0,0,304.07,273.26Z" fill="#edf8f9"/><path d="M303.27,273.78a3,3,0,0,1-1.51-.39,2.06,2.06,0,0,1-1-1.28l-.48-1.83a2.71,2.71,0,0,1,2.23-3.06l4.38-1.17a3.19,3.19,0,0,1,2.42.27,2.11,2.11,0,0,1,1,1.29l.48,1.83a2.72,2.72,0,0,1-2.23,3.06l-4.38,1.16h0A3.56,3.56,0,0,1,303.27,273.78Zm.8-.51h0Zm3.71-6.51a2.72,2.72,0,0,0-.69.09L302.71,268c-1.1.3-1.85,1.24-1.64,2.06l.47,1.83a1.32,1.32,0,0,0,.64.78,2.36,2.36,0,0,0,1.79.19l4.38-1.17c1.1-.29,1.85-1.23,1.64-2.05l-.48-1.83a1.3,1.3,0,0,0-.63-.79A2.19,2.19,0,0,0,307.78,266.76Z" fill="#009ed5"/><rect x="289.22" y="270.83" width="9.57" height="5.84" rx="2.23" transform="translate(649.99 459.88) rotate(164.64)" fill="#edf8f9"/><path d="M291.72,277.73a2.62,2.62,0,0,1-2.55-1.94l-.36-1.33a2.64,2.64,0,0,1,1.84-3.24l4.93-1.36a2.67,2.67,0,0,1,2,.26,2.64,2.64,0,0,1,1.24,1.59l.36,1.33a2.62,2.62,0,0,1-.25,2,2.67,2.67,0,0,1-1.59,1.24l-4.93,1.35A2.8,2.8,0,0,1,291.72,277.73Zm4.56-7.14a1.59,1.59,0,0,0-.48.07L290.87,272a1.84,1.84,0,0,0-1.27,2.23l.37,1.33a1.81,1.81,0,0,0,2.23,1.27h0l4.93-1.35a1.82,1.82,0,0,0,1.09-.85,1.85,1.85,0,0,0,.18-1.38l-.37-1.33A1.81,1.81,0,0,0,296.28,270.59Z" fill="#009ed5"/><rect x="277.35" y="273.37" width="9.57" height="5.84" rx="2.23" transform="translate(627.35 467.99) rotate(164.64)" fill="#edf8f9"/><path d="M279.85,280.27a2.66,2.66,0,0,1-2.55-1.94l-.36-1.34a2.59,2.59,0,0,1,.25-2,2.62,2.62,0,0,1,1.6-1.24l4.92-1.35a2.64,2.64,0,0,1,3.25,1.84l.36,1.33a2.64,2.64,0,0,1-1.84,3.25l-4.93,1.35h0A2.42,2.42,0,0,1,279.85,280.27Zm.59-.5h0Zm4-6.64a2,2,0,0,0-.48.06L279,274.54a1.83,1.83,0,0,0-1.27,2.23l.37,1.34a1.81,1.81,0,0,0,2.23,1.27l4.93-1.36a1.82,1.82,0,0,0,1.27-2.23l-.37-1.33A1.82,1.82,0,0,0,284.41,273.13Z" fill="#009ed5"/><path d="M268,282.84a2.63,2.63,0,0,1-2.54-1.94l-.37-1.33a2.64,2.64,0,0,1,1.85-3.24l4.93-1.36a2.65,2.65,0,0,1,3.24,1.85l.37,1.33a2.66,2.66,0,0,1-1.85,3.25l-4.93,1.35h0A2.74,2.74,0,0,1,268,282.84Zm.59-.49h0Zm4-6.65a1.64,1.64,0,0,0-.48.07l-4.92,1.35a1.81,1.81,0,0,0-1.27,2.23l.36,1.33a1.81,1.81,0,0,0,2.23,1.27l4.93-1.35a1.81,1.81,0,0,0,1.27-2.23l-.36-1.33A1.83,1.83,0,0,0,272.53,275.7Z" fill="#009ed5"/><path d="M317.54,279.94a2.67,2.67,0,0,1-2.57-2l-.39-1.4a2.67,2.67,0,0,1,1.86-3.28l4.89-1.34a2.6,2.6,0,0,1,2,.26,2.64,2.64,0,0,1,1.25,1.6l.39,1.41a2.67,2.67,0,0,1-1.87,3.27l-4.88,1.35A2.86,2.86,0,0,1,317.54,279.94Zm.59-.49h0Zm3.9-6.76a1.59,1.59,0,0,0-.48.07l-4.89,1.34a1.83,1.83,0,0,0-1.28,2.26l.38,1.4a1.84,1.84,0,0,0,2.26,1.29l4.88-1.34a1.84,1.84,0,0,0,1.29-2.26L323.8,274A1.84,1.84,0,0,0,322,272.69Z" fill="#009ed5"/><path d="M306.69,283.23l4.39-1.17a2.32,2.32,0,0,0,1.92-2.59l-.49-1.87a2.3,2.3,0,0,0-2.94-1.3l-4.38,1.16a2.33,2.33,0,0,0-1.92,2.6l.49,1.87A2.3,2.3,0,0,0,306.69,283.23Z" fill="#edf8f9"/><path d="M305.91,283.75a3.06,3.06,0,0,1-1.51-.39,2.17,2.17,0,0,1-1-1.33l-.49-1.87a2.74,2.74,0,0,1,2.22-3.1l4.38-1.16a3.14,3.14,0,0,1,2.4.27,2.17,2.17,0,0,1,1,1.33l.49,1.86a2.73,2.73,0,0,1-2.22,3.1l-4.38,1.17A3.46,3.46,0,0,1,305.91,283.75Zm4.45-7.14a2.71,2.71,0,0,0-.68.09l-4.38,1.16c-1.1.29-1.85,1.25-1.63,2.09l.49,1.87a1.33,1.33,0,0,0,.65.82,2.35,2.35,0,0,0,1.78.19h0l4.38-1.16c1.11-.3,1.85-1.26,1.63-2.1l-.49-1.87a1.4,1.4,0,0,0-.65-.82A2.24,2.24,0,0,0,310.36,276.61Z" fill="#009ed5"/><rect x="291.92" y="280.63" width="9.57" height="5.96" rx="2.25" transform="translate(657.92 478.52) rotate(164.64)" fill="#edf8f9"/><path d="M294.46,287.64a2.69,2.69,0,0,1-1.32-.35,2.63,2.63,0,0,1-1.25-1.61l-.39-1.4a2.67,2.67,0,0,1,1.87-3.28l4.88-1.34a2.66,2.66,0,0,1,3.27,1.87l.39,1.4a2.67,2.67,0,0,1-1.86,3.28l-4.89,1.34h0A2.8,2.8,0,0,1,294.46,287.64Zm.59-.49h0Zm3.9-6.76a2,2,0,0,0-.48.07l-4.89,1.34a1.84,1.84,0,0,0-1.28,2.26l.38,1.41a1.84,1.84,0,0,0,2.26,1.28l4.89-1.34a1.84,1.84,0,0,0,1.28-2.26l-.38-1.4A1.85,1.85,0,0,0,299,280.39Z" fill="#009ed5"/><rect x="280.06" y="283.18" width="9.57" height="5.96" rx="2.25" transform="translate(635.3 486.68) rotate(164.64)" fill="#edf8f9"/><path d="M282.6,290.2a2.67,2.67,0,0,1-2.57-2l-.39-1.41a2.67,2.67,0,0,1,1.86-3.27l4.89-1.34a2.66,2.66,0,0,1,3.27,1.86l.39,1.41a2.67,2.67,0,0,1-1.87,3.27l-4.88,1.34A2.42,2.42,0,0,1,282.6,290.2Zm.59-.5h0Zm3.9-6.75a2,2,0,0,0-.48.06l-4.89,1.34a1.84,1.84,0,0,0-1.28,2.26l.38,1.41a1.85,1.85,0,0,0,2.26,1.29L288,288a1.84,1.84,0,0,0,1.29-2.26l-.38-1.41A1.85,1.85,0,0,0,287.09,283Z" fill="#009ed5"/><path d="M270.72,292.8a2.7,2.7,0,0,1-2.56-2l-.39-1.41a2.67,2.67,0,0,1,1.86-3.27l4.88-1.34a2.66,2.66,0,0,1,3.28,1.86l.38,1.41a2.66,2.66,0,0,1-1.86,3.27l-4.88,1.34h0A2.83,2.83,0,0,1,270.72,292.8Zm.6-.5h0Zm3.9-6.75a2.12,2.12,0,0,0-.49.06L269.85,287a1.85,1.85,0,0,0-1.29,2.26l.39,1.41a1.84,1.84,0,0,0,2.26,1.28l4.88-1.34a1.84,1.84,0,0,0,1.29-2.26l-.39-1.4A1.82,1.82,0,0,0,275.22,285.55Z" fill="#009ed5"/><path d="M320.29,289.9a2.71,2.71,0,0,1-2.59-2l-.41-1.48a2.7,2.7,0,0,1,1.88-3.31l4.83-1.32a2.68,2.68,0,0,1,3.31,1.88l.41,1.48a2.69,2.69,0,0,1-1.88,3.3L321,289.8h0A3,3,0,0,1,320.29,289.9Zm.6-.5h0Zm3.82-6.87a2.14,2.14,0,0,0-.49.07l-4.83,1.33a1.84,1.84,0,0,0-1.13.88,1.87,1.87,0,0,0-.18,1.41l.41,1.48a1.8,1.8,0,0,0,.88,1.12,1.83,1.83,0,0,0,1.41.18l4.84-1.33a1.87,1.87,0,0,0,1.12-.87,1.84,1.84,0,0,0,.18-1.41l-.41-1.49A1.87,1.87,0,0,0,324.71,282.53Z" fill="#009ed5"/><path d="M309.32,293.19l4.39-1.16a2.35,2.35,0,0,0,1.91-2.64l-.5-1.9a2.32,2.32,0,0,0-2.95-1.35l-4.39,1.16a2.36,2.36,0,0,0-1.91,2.64l.5,1.91A2.31,2.31,0,0,0,309.32,293.19Z" fill="#edf8f9"/><path d="M308.55,293.71a3.09,3.09,0,0,1-1.51-.39A2.27,2.27,0,0,1,306,292l-.5-1.9a2.75,2.75,0,0,1,2.21-3.14l4.38-1.17a3.16,3.16,0,0,1,2.39.28,2.25,2.25,0,0,1,1.07,1.36l.5,1.91a2.75,2.75,0,0,1-2.21,3.14l-4.38,1.16A3.33,3.33,0,0,1,308.55,293.71Zm4.39-7.26a2.63,2.63,0,0,0-.67.09l-4.38,1.16a1.94,1.94,0,0,0-1.62,2.14l.5,1.9a1.36,1.36,0,0,0,.69.86,2.34,2.34,0,0,0,1.76.2h0l4.38-1.17a1.93,1.93,0,0,0,1.62-2.13l-.5-1.91a1.41,1.41,0,0,0-.69-.86A2.21,2.21,0,0,0,312.94,286.45Z" fill="#009ed5"/><rect x="294.63" y="290.42" width="9.57" height="6.09" rx="2.27" transform="translate(665.84 497.16) rotate(164.64)" fill="#edf8f9"/><path d="M297.2,297.55a2.7,2.7,0,0,1-2.6-2l-.4-1.49a2.69,2.69,0,0,1,1.88-3.3l4.83-1.33a2.69,2.69,0,0,1,3.31,1.88l.41,1.48a2.71,2.71,0,0,1-1.88,3.31l-4.84,1.33h0A2.94,2.94,0,0,1,297.2,297.55Zm.6-.49h0Zm3.83-6.87a1.73,1.73,0,0,0-.5.07l-4.83,1.33a1.86,1.86,0,0,0-1.13.87,1.89,1.89,0,0,0-.18,1.41l.41,1.49a1.86,1.86,0,0,0,2.29,1.3l4.84-1.33a1.86,1.86,0,0,0,1.3-2.29l-.41-1.48A1.85,1.85,0,0,0,301.63,290.19Z" fill="#009ed5"/><rect x="282.77" y="292.99" width="9.57" height="6.09" rx="2.27" transform="translate(643.24 505.36) rotate(164.64)" fill="#edf8f9"/><path d="M285.34,300.13a2.7,2.7,0,0,1-2.59-2l-.41-1.48a2.69,2.69,0,0,1,1.88-3.3l4.84-1.33a2.69,2.69,0,0,1,3.3,1.88l.41,1.48a2.69,2.69,0,0,1-1.88,3.3L286.05,300h0A2.44,2.44,0,0,1,285.34,300.13Zm.6-.49h0Zm3.83-6.87a1.61,1.61,0,0,0-.49.07l-4.84,1.32a1.87,1.87,0,0,0-1.3,2.29l.4,1.48a1.87,1.87,0,0,0,2.29,1.31l4.84-1.33a1.86,1.86,0,0,0,1.3-2.29l-.4-1.48a1.83,1.83,0,0,0-.88-1.12A1.79,1.79,0,0,0,289.77,292.77Z" fill="#009ed5"/><path d="M273.48,302.75a2.73,2.73,0,0,1-1.33-.35,2.69,2.69,0,0,1-1.27-1.63l-.4-1.48a2.68,2.68,0,0,1,1.88-3.3l4.83-1.33a2.71,2.71,0,0,1,3.31,1.88l.4,1.48a2.69,2.69,0,0,1-1.88,3.31l-4.83,1.32A2.53,2.53,0,0,1,273.48,302.75Zm4.42-7.36a1.66,1.66,0,0,0-.49.07l-4.83,1.32a1.87,1.87,0,0,0-1.31,2.29l.41,1.48a1.87,1.87,0,0,0,2.29,1.31h0l4.84-1.33a1.86,1.86,0,0,0,1.3-2.29l-.41-1.48a1.8,1.8,0,0,0-.88-1.12A1.77,1.77,0,0,0,277.9,295.39Z" fill="#009ed5"/><path d="M323.05,300a2.69,2.69,0,0,1-2.59-2l-.41-1.48a2.7,2.7,0,0,1,1.88-3.31l4.84-1.32a2.68,2.68,0,0,1,3.3,1.88l.4,1.48a2.68,2.68,0,0,1-1.87,3.3l-4.84,1.33h0A3,3,0,0,1,323.05,300Zm.6-.5h0Zm3.82-6.86a2.12,2.12,0,0,0-.49.06L322.15,294a1.87,1.87,0,0,0-1.31,2.29l.41,1.48a1.8,1.8,0,0,0,.88,1.12,1.83,1.83,0,0,0,1.41.18l4.84-1.32a1.87,1.87,0,0,0,1.3-2.29l-.41-1.48a1.86,1.86,0,0,0-.87-1.13A1.92,1.92,0,0,0,327.47,292.59Z" fill="#009ed5"/><path d="M312.08,303.24l4.39-1.16a2.35,2.35,0,0,0,1.91-2.64l-.5-1.9a2.32,2.32,0,0,0-2.95-1.35l-4.39,1.17a2.34,2.34,0,0,0-1.91,2.63l.5,1.91A2.31,2.31,0,0,0,312.08,303.24Z" fill="#edf8f9"/><path d="M311.31,303.76a3,3,0,0,1-1.51-.39,2.27,2.27,0,0,1-1.07-1.37l-.5-1.9a2.75,2.75,0,0,1,2.21-3.14l4.38-1.17a3.16,3.16,0,0,1,2.39.28,2.28,2.28,0,0,1,1.07,1.36l.5,1.91a2.75,2.75,0,0,1-2.21,3.14l-4.38,1.16A3.33,3.33,0,0,1,311.31,303.76Zm4.39-7.26a2.63,2.63,0,0,0-.67.09l-4.38,1.16a2,2,0,0,0-1.62,2.14l.5,1.9a1.36,1.36,0,0,0,.69.86,2.34,2.34,0,0,0,1.76.2h0l4.38-1.17a1.93,1.93,0,0,0,1.62-2.13l-.5-1.91a1.41,1.41,0,0,0-.69-.86A2.18,2.18,0,0,0,315.7,296.5Z" fill="#009ed5"/><rect x="297.39" y="300.47" width="9.57" height="6.09" rx="2.27" transform="translate(673.93 516.17) rotate(164.64)" fill="#edf8f9"/><path d="M300,307.6a2.7,2.7,0,0,1-2.6-2l-.4-1.49a2.69,2.69,0,0,1,1.88-3.3l4.83-1.33a2.69,2.69,0,0,1,3.31,1.88l.4,1.48a2.69,2.69,0,0,1-1.87,3.31l-4.84,1.33h0A2.94,2.94,0,0,1,300,307.6Zm.6-.49h0Zm3.82-6.87a1.71,1.71,0,0,0-.49.07l-4.83,1.33a1.86,1.86,0,0,0-1.13.87,1.91,1.91,0,0,0-.18,1.42l.41,1.48a1.86,1.86,0,0,0,2.29,1.3l4.84-1.33a1.86,1.86,0,0,0,1.3-2.29l-.41-1.48a1.84,1.84,0,0,0-.87-1.12A1.93,1.93,0,0,0,304.38,300.24Z" fill="#009ed5"/><rect x="285.53" y="303.04" width="9.57" height="6.09" rx="2.27" transform="translate(651.32 524.37) rotate(164.64)" fill="#edf8f9"/><path d="M288.1,310.18a2.69,2.69,0,0,1-2.59-2l-.41-1.48a2.65,2.65,0,0,1,.26-2,2.69,2.69,0,0,1,1.62-1.26l4.84-1.33a2.69,2.69,0,0,1,3.3,1.88l.41,1.48a2.7,2.7,0,0,1-1.88,3.31l-4.84,1.32h0A2.44,2.44,0,0,1,288.1,310.18Zm.6-.49h0Zm3.83-6.87a1.61,1.61,0,0,0-.49.07l-4.84,1.32a1.87,1.87,0,0,0-1.12.88,1.83,1.83,0,0,0-.18,1.41l.4,1.48a1.87,1.87,0,0,0,2.29,1.31l4.84-1.33a1.86,1.86,0,0,0,1.3-2.29l-.4-1.48a1.83,1.83,0,0,0-.88-1.12A1.79,1.79,0,0,0,292.53,302.82Z" fill="#009ed5"/><path d="M276.24,312.8a2.69,2.69,0,0,1-2.6-2l-.4-1.48a2.67,2.67,0,0,1,1.88-3.3l4.83-1.33a2.7,2.7,0,0,1,3.31,1.88l.4,1.48a2.69,2.69,0,0,1-1.88,3.31L277,312.7A2.53,2.53,0,0,1,276.24,312.8Zm4.42-7.36a1.71,1.71,0,0,0-.49.07l-4.83,1.32a1.92,1.92,0,0,0-1.13.88,1.88,1.88,0,0,0-.18,1.41l.41,1.49a1.85,1.85,0,0,0,.88,1.12,1.83,1.83,0,0,0,1.41.18h0l4.84-1.33a1.86,1.86,0,0,0,1.3-2.29l-.41-1.48A1.87,1.87,0,0,0,280.66,305.44Z" fill="#009ed5"/></g><path d="M154.47,153.14H113.92A3.94,3.94,0,0,1,110,149.2v-2h1.1v2a2.84,2.84,0,0,0,2.84,2.84h40.55a2.84,2.84,0,0,0,2.84-2.84v-2h1.1v2A3.93,3.93,0,0,1,154.47,153.14Z" fill="#06a9db"/><path d="M39.71,50.3a.83.83,0,0,1-.83-.82v-3a.83.83,0,1,1,1.65,0v3A.82.82,0,0,1,39.71,50.3Z" fill="#009ed5"/><path d="M221.55,139.29H46.84a.55.55,0,0,1-.55-.55V33.11a.55.55,0,0,1,.55-.55H221.55a.55.55,0,0,1,.55.55V138.74A.55.55,0,0,1,221.55,139.29Zm-174.16-1.1H221V33.66H47.39Z" fill="#009ed5"/><path d="M236.23,159.57h-2.69a.82.82,0,0,1-.83-.82.83.83,0,0,1,.83-.83h2.69a.83.83,0,0,1,.83.83A.82.82,0,0,1,236.23,159.57Z" fill="#009ed5"/><polygon points="113.34 37.85 217.1 37.85 217.1 134.39 193.65 134.39 113.34 37.85" fill="#06a9db" opacity="0.03"/><polygon points="263.75 194.85 297.64 185.53 306.31 217.06 298.65 219.17 263.75 194.85" fill="#06a9db" opacity="0.03"/><path d="M58.13,233.2H36.88a1,1,0,1,0,0,1.93H58.13Z" fill="#009ed5" opacity="0.1"/><path d="M165.78,233.2H64.83v1.93h101a1,1,0,0,0,0-1.93Z" fill="#009ed5" opacity="0.1"/><path d="M58.13,226.85h-18a1,1,0,0,0,0,1.93h18Z" fill="#009ed5" opacity="0.1"/><path d="M165.78,226.85H64.83v1.93h101a1,1,0,0,0,0-1.93Z" fill="#009ed5" opacity="0.1"/><path d="M165.78,221H64.83v1.93h101a1,1,0,0,0,0-1.93Z" fill="#009ed5" opacity="0.1"/><path d="M58.13,221H39.69a1,1,0,0,0,0,1.93H58.13Z" fill="#009ed5" opacity="0.1"/><path d="M58.13,215.26H36.88a1,1,0,1,0,0,1.92H58.13Z" fill="#009ed5" opacity="0.1"/><path d="M165.78,215.26H64.83v1.92h101a1,1,0,0,0,0-1.92Z" fill="#009ed5" opacity="0.1"/><path d="M203.2,190.93H64.83v1.65H203.2a.83.83,0,1,0,0-1.65Z" fill="#ffa515" opacity="0.1"/><path d="M199.66,183.93H64.83v1.65H199.66a.83.83,0,0,0,0-1.65Z" fill="#ffa515" opacity="0.1"/><path d="M64.83,257.88a.57.57,0,0,1-.38-.15l-2.8-2.67-3.16,2.69a.56.56,0,0,1-.59.08.54.54,0,0,1-.32-.5V178.88a.55.55,0,0,1,.55-.55h6.7a.54.54,0,0,1,.55.55v78.45a.56.56,0,0,1-.33.51A.54.54,0,0,1,64.83,257.88Zm-6.15-78.45v76.71l2.64-2.24a.55.55,0,0,1,.73,0l2.23,2.13V179.43Z" fill="#009ed5"/><path d="M169,239.31H64.83v1.92H169a4.74,4.74,0,0,0,4.74-4.74V214.67a5.84,5.84,0,0,0-5.83-5.83h-103v1.93h103a3.91,3.91,0,0,1,3.9,3.9v21.82A2.82,2.82,0,0,1,169,239.31Z" fill="#06a9db"/><path d="M351.17,323.61H291.11L322.46,315A19.45,19.45,0,0,0,336,291.14L304.7,177a4.25,4.25,0,0,0-2-2.58,4.18,4.18,0,0,0-3.24-.41l-60.85,16.7a4.58,4.58,0,0,0-2.45,1.6,4.27,4.27,0,0,0-.71,3.71l14,51.48a4.48,4.48,0,0,0-4-2.42H218a.83.83,0,1,0,0,1.65h27.43a2.84,2.84,0,0,1,2.84,2.84v35.33a2.84,2.84,0,0,1-2.84,2.83H130.54v-41h81.1a.83.83,0,0,0,0-1.65H174.49a9.94,9.94,0,0,0,4.93-8.57V213.19a9.9,9.9,0,0,0-4.23-8.12h41.06a.83.83,0,0,0,.82-.83v-5.75a.82.82,0,0,0-.82-.82H213a.51.51,0,0,0,0-.38,37.07,37.07,0,0,1-3.83-15.86,32.56,32.56,0,0,1,3.82-15.17.54.54,0,0,0,0-.56h3.37a.82.82,0,0,0,.82-.82v-5.2h13.29a1,1,0,0,0,0-1.93H16.86a1.57,1.57,0,0,1-1.58-1.57v-7.54a1.58,1.58,0,0,1,1.58-1.58H251.53a1.58,1.58,0,0,1,1.58,1.58v7.54a1.57,1.57,0,0,1-1.58,1.57H239.18a1,1,0,0,0,0,1.93h12.35a3.51,3.51,0,0,0,3.51-3.5v-7.54a3.5,3.5,0,0,0-3.51-3.5H229.65v-116a4.35,4.35,0,0,0-4.35-4.35H43.09a4.35,4.35,0,0,0-4.35,4.35V42.42a1,1,0,0,0,1.93,0V29.14a2.42,2.42,0,0,1,2.42-2.43H225.3a2.42,2.42,0,0,1,2.42,2.43v115.8h-187V53.18a1,1,0,0,0-1.93,0v92H16.86a3.5,3.5,0,0,0-3.5,3.5v7.54a3.5,3.5,0,0,0,3.5,3.5H51a10.78,10.78,0,0,0-4.81,8.94v25.71a10.74,10.74,0,0,0,4.76,8.92H25.05a1,1,0,0,0-1,1v5.59a1,1,0,0,0,1,1h2.66a.87.87,0,0,0,.11.46,29.06,29.06,0,0,1,3.41,13.57A33.58,33.58,0,0,1,27.8,239a.71.71,0,0,0-.09.28H25.05a1,1,0,0,0-1,1v5.21a1,1,0,0,0,1,1H58.13v-1.92H26v-3.29H58.13v-1.92H29.51a34.93,34.93,0,0,0,3.37-14.51,30.72,30.72,0,0,0-3.43-14H58.13v-1.93H26v-3.67H58.13v-1.92h-3a9.11,9.11,0,0,1-7.35-8.92V170.22c0-4.25,3-9.66,7.23-10.5l.09,0H215.42v4.37H58.67a6.2,6.2,0,0,0-6.19,6.2v24.08a5,5,0,0,0,5,5h.66v-1.65h-.66a3.34,3.34,0,0,1-3.34-3.34V170.25a4.55,4.55,0,0,1,4.54-4.55H211.94a33.12,33.12,0,0,0-4,15.73,37.75,37.75,0,0,0,3.89,16.24h-147v1.65H215.42v4.1H171.27a9.61,9.61,0,0,0-1.79-.17H64.83v1.92H169.48a8,8,0,0,1,8,8V236.5a8,8,0,0,1-8,8H64.83v1.92h14.4A4.49,4.49,0,0,0,78,249.56v35.33a4.46,4.46,0,0,0,1.52,3.34H38a1,1,0,0,0-1,1v5.59a1,1,0,0,0,1,1h4.7c.6.89,2.81,4.68,2.81,11.73,0,6.11-1.68,9.41-2.49,10.65H38a1,1,0,0,0-1,1v4.52H-1.17a1.23,1.23,0,0,0-1.23,1.23h0a1.23,1.23,0,0,0,1.23,1.23H351.17a1.23,1.23,0,0,0,1.23-1.23h0A1.23,1.23,0,0,0,351.17,323.61ZM237.28,195.5a2.36,2.36,0,0,1,.23-1.78,2.32,2.32,0,0,1,1.42-1.11l61-16.76a2.57,2.57,0,0,1,.62-.08,2.29,2.29,0,0,1,1.16.31,2.36,2.36,0,0,1,1.11,1.42l31.35,114.15A17.56,17.56,0,0,1,322,313.15l-31.82,8.74a17.56,17.56,0,0,1-21.5-12.24ZM98.61,246.73h30.51v41H98.61Zm-19,2.83a2.84,2.84,0,0,1,2.84-2.84H97.2v41H82.45a2.84,2.84,0,0,1-2.84-2.83Zm-33,57.92c0-6.32-1.69-10.13-2.61-11.73H210.47c2.69,0,4.88,1.75,4.88,3.9v15.66c0,1.55-1.6,2.82-3.57,2.82H44.29C45.24,316.45,46.59,313.09,46.59,307.48Zm-7.65,12.57H211.78c3,0,5.5-2.12,5.5-4.74V299.65c0-3.22-3.06-5.83-6.81-5.83H38.94v-3.67H212.41c5.41,0,9.82,3.6,9.82,8v17.15c0,4.42-4.41,8-9.82,8H38.94Zm185.22-4.73V298.17c0-3.81-2.56-7.13-6.29-8.8h27.57a4.49,4.49,0,0,0,4.49-4.48V249.56c0-.08,0-.15,0-.22l16.86,60.82a19.32,19.32,0,0,0,9.13,11.72,19.83,19.83,0,0,0,4.07,1.73h-61.1A9.66,9.66,0,0,0,224.16,315.32Z" fill="#06a9db"/></svg>