<svg xmlns="http://www.w3.org/2000/svg" width="350" height="350" viewBox="0 0 350 350"><title>scholarship</title><path d="M260.68,99.59c0-11.1-10.7-20.12-23.86-20.12H94.19l-.52,0c-13,.17-23.5,9.19-23.5,20.1V257.35H25.65V259c0,11.09,10.71,20.11,23.87,20.11H192.3c12.89,0,23.35-8.51,23.82-19.38l0-1.07V101.19h44.52ZM49.52,275.86c-9.68,0-18.18-5.61-20.2-13.34l-.51-2H168.46l.22,1.29a19,19,0,0,0,6.69,11.26l3.24,2.75ZM213,259c0,9.32-9.27,16.9-20.66,16.9s-20.66-7.58-20.66-16.9v-1.61H73.38V99.59c0-9.33,9.27-16.91,20.66-16.91h129.1l-3.24,2.75A18.52,18.52,0,0,0,213,99.59Zm3.15-161,.51-2c2-7.73,10.52-13.34,20.2-13.34S255,88.29,257,96l.51,2Z" fill="#06a9db"/><path d="M199.45,194.93a1.94,1.94,0,0,0-.11-2.29l-4.88-6a34.89,34.89,0,0,0-1.28-3.86l.3-7.6a1.91,1.91,0,0,0-1.29-1.89l-7.1-2.49c-.83-.78-1.7-1.53-2.62-2.24a33.57,33.57,0,0,0-3.2-2.19l-4.22-6.2a1.91,1.91,0,0,0-2.16-.75l-7.34,2.27a34.33,34.33,0,0,0-7-.09l-7.22-2.53a1.93,1.93,0,0,0-2.19.68l-4.47,6.1a33.91,33.91,0,0,0-5.9,4.23l-7.18,2.22a1.92,1.92,0,0,0-1.35,1.85l0,7.63a33.9,33.9,0,0,0-2.18,6.78l-4.49,6.13a1.92,1.92,0,0,0,0,2.29l4.57,6.11a34,34,0,0,0,2.28,6.78l0,7.56a1.93,1.93,0,0,0,1.37,1.84l7.31,2.2c.46.41.91.83,1.41,1.21a32.24,32.24,0,0,0,4.46,2.88l4.52,6.06a1.91,1.91,0,0,0,2.19.66l7.19-2.58a34.68,34.68,0,0,0,7.13-.2l7.25,2.19a1.93,1.93,0,0,0,2.16-.78l4.25-6.35a33.27,33.27,0,0,0,5.62-4.41l7.12-2.55a1.92,1.92,0,0,0,1.27-1.9l-.36-7.58a34.44,34.44,0,0,0,1.92-7Z" fill="#ffa515" opacity="0.4"/><path d="M199.45,194.93a1.94,1.94,0,0,0-.11-2.29l-4.88-6a34.89,34.89,0,0,0-1.28-3.86l.3-7.6a1.91,1.91,0,0,0-1.29-1.89l-7.1-2.49c-.83-.78-1.7-1.53-2.62-2.24a33.57,33.57,0,0,0-3.2-2.19l-4.22-6.2a1.91,1.91,0,0,0-2.16-.75l-7.34,2.27a34.33,34.33,0,0,0-7-.09l-7.22-2.53a1.93,1.93,0,0,0-2.19.68l-4.47,6.1a33.91,33.91,0,0,0-5.9,4.23l-7.18,2.22a1.92,1.92,0,0,0-1.35,1.85l0,7.63a33.9,33.9,0,0,0-2.18,6.78l-4.49,6.13a1.92,1.92,0,0,0,0,2.29l4.57,6.11a34,34,0,0,0,2.28,6.78l0,7.56a1.93,1.93,0,0,0,1.37,1.84l7.31,2.2c.46.41.91.83,1.41,1.21a32.24,32.24,0,0,0,4.46,2.88l4.52,6.06a1.91,1.91,0,0,0,2.19.66l7.19-2.58a34.68,34.68,0,0,0,7.13-.2l7.25,2.19a1.93,1.93,0,0,0,2.16-.78l4.25-6.35a33.27,33.27,0,0,0,5.62-4.41l7.12-2.55a1.92,1.92,0,0,0,1.27-1.9l-.36-7.58a34.44,34.44,0,0,0,1.92-7Z" fill="none" opacity="0.5"/><rect x="132.8" y="167.67" width="57.37" height="55.95" rx="27.97" transform="translate(153.63 -57.92) rotate(37.76)" fill="#fff"/><path d="M166.73,181.52a.6.6,0,0,0-.49,0l-9.5,5.49a.54.54,0,0,0-.25.43v11a.54.54,0,0,1-.25.43l-9.49,5.49c-.14.07-.14.2,0,.28l9.49,5.48a.55.55,0,0,0,.5,0l9.49-5.48a.54.54,0,0,0,.25-.43v-11a.54.54,0,0,1,.25-.43l9.5-5.49c.13-.07.13-.2,0-.28Z" fill="#fff"/><polygon points="166.49 181.38 156.49 187.15 156.49 198.69 146.5 204.46 156.49 210.23 166.48 204.46 166.48 192.92 176.48 187.15 166.49 181.38" fill="#fff" opacity="0"/><polygon points="166.48 181.38 156.49 187.15 166.48 192.92 176.48 187.15 166.48 181.38" fill="#06a9db"/><polygon points="156.49 198.69 146.5 204.46 156.49 210.23 166.48 204.46 156.49 198.69" fill="#06a9db"/><polygon points="156.49 187.15 166.48 192.92 166.48 204.46 156.49 198.69 156.49 187.15" fill="#06a9db" opacity="0.33"/><path d="M166.73,181.52a.6.6,0,0,0-.49,0l-9.5,5.49a.54.54,0,0,0-.25.43v11a.54.54,0,0,1-.25.43l-9.49,5.49c-.14.07-.14.2,0,.28l9.49,5.48a.55.55,0,0,0,.5,0l9.49-5.48a.54.54,0,0,0,.25-.43v-11a.54.54,0,0,1,.25-.43l9.5-5.49c.13-.07.13-.2,0-.28Z" fill="none"/><path d="M161.46,222.3A26.59,26.59,0,1,1,182.57,212,26.49,26.49,0,0,1,161.46,222.3Zm0-52A25.23,25.23,0,1,0,177,175.63,25.3,25.3,0,0,0,161.51,170.34Z" fill="#ffa515"/><path d="M150.68,234.66a2,2,0,0,1-2.33-.73l-4.76-6.51-.39-.26-6,16.85,5.11-.71a12.66,12.66,0,0,1,6.18.61l3.84,1.66,3-12.52Z" fill="#06a9db" opacity="0.3"/><path d="M176,233.45a2.06,2.06,0,0,1-2.31.8l-6.66-2.08,3.63,13.4,3.5-1.6a12.47,12.47,0,0,1,6.14-.66l5.48.7-5.75-16.46Z" fill="#06a9db" opacity="0.3"/><path d="M175.66,109.56H90.42a1.5,1.5,0,0,1,0-3h85.24a1.5,1.5,0,1,1,0,3Z" fill="#06a9db"/><path d="M150.25,123.23H90.42a1.5,1.5,0,0,1,0-3h59.83a1.5,1.5,0,0,1,0,3Z" fill="#06a9db"/><path d="M175.66,136.92H90.42a1.5,1.5,0,1,1,0-3h85.24a1.5,1.5,0,0,1,0,3Z" fill="#06a9db"/><path d="M290.72,146.65a1.59,1.59,0,0,1-.59-.12,1.5,1.5,0,0,1-.79-2,54.93,54.93,0,0,0,4.26-17.43,1.5,1.5,0,0,1,3,.23,57.8,57.8,0,0,1-4.49,18.38A1.49,1.49,0,0,1,290.72,146.65Z" fill="#06a9db"/><path d="M310.71,153a4.92,4.92,0,1,1,4.91-4.91A4.91,4.91,0,0,1,310.71,153Zm0-7.82a2.91,2.91,0,1,0,2.91,2.91A2.91,2.91,0,0,0,310.71,145.19Z" fill="#ffa515"/><path d="M194.09,68.08A3.92,3.92,0,1,1,198,64.16,3.93,3.93,0,0,1,194.09,68.08Zm0-6.34a2.42,2.42,0,1,0,2.42,2.42A2.43,2.43,0,0,0,194.09,61.74Z" fill="#ffa515"/><path d="M135.69,301.71a3.61,3.61,0,1,1,3.6-3.6A3.61,3.61,0,0,1,135.69,301.71Zm0-5.71a2.11,2.11,0,1,0,2.1,2.11A2.11,2.11,0,0,0,135.69,296Z" fill="#ffa515"/><path d="M266.09,255.56a3.1,3.1,0,1,1,3.1-3.1A3.1,3.1,0,0,1,266.09,255.56Zm0-5.2a2.1,2.1,0,1,0,2.1,2.1A2.1,2.1,0,0,0,266.09,250.36Z" fill="#ffa515"/><path d="M255.19,163.78a2,2,0,0,1-1.07-.31,2,2,0,0,1-.63-2.77c9.5-15.07,6.1-23.88.27-34.68a2,2,0,0,1,3.54-1.9c6.27,11.61,10.22,21.84-.41,38.72A2,2,0,0,1,255.19,163.78Z" fill="#06a9db"/><path d="M58.55,203.81a1.52,1.52,0,0,1-1-.38c-14.75-13-24.07-13.42-34.33-9.85a1.5,1.5,0,0,1-1-2.84c13.32-4.62,23.43-1.79,37.3,10.44a1.5,1.5,0,0,1,.13,2.12A1.47,1.47,0,0,1,58.55,203.81Z" fill="#06a9db" opacity="0.5"/><path d="M270.87,156.37a.76.76,0,0,1-.66-1.13l5.16-9.22a.77.77,0,0,1,.66-.39.68.68,0,0,1,.66.37l5.41,9.09a.77.77,0,0,1-.65,1.16l-10.57.12Zm5.19-8.46-3.88,6.92,7.94-.09Z" fill="#ffa515"/><path d="M60.41,76.45l-.2,0a.75.75,0,0,1-.52-.53l-3-11.54a.74.74,0,0,1,.2-.72.75.75,0,0,1,.73-.19l11.5,3.18a.72.72,0,0,1,.52.53.74.74,0,0,1-.2.72l-8.5,8.36A.75.75,0,0,1,60.41,76.45ZM58.47,65.23l2.34,9,6.65-6.54Z" fill="#ffa515"/><path d="M213.36,306.31a.64.64,0,0,1-.2,0,.75.75,0,0,1-.53-.53l-3-11.54a.76.76,0,0,1,.2-.72.73.73,0,0,1,.73-.19l11.5,3.17a.75.75,0,0,1,.33,1.26l-8.51,8.36A.74.74,0,0,1,213.36,306.31Zm-2-11.22,2.35,9,6.65-6.54Z" fill="#ffa515"/><path d="M304.81,187.28a.4.4,0,0,1-.15,0,.49.49,0,0,1-.33-.37l-1.26-6a.52.52,0,0,1,.16-.47.49.49,0,0,1,.49-.1l5.86,1.92a.49.49,0,0,1,.33.37.5.5,0,0,1-.15.48l-4.62,4.11A.51.51,0,0,1,304.81,187.28Zm-.59-5.8.91,4.35,3.32-3Z" fill="#ffa515"/><path d="M320.44,168.48H319.3a2,2,0,0,1,0-4h1.14a2,2,0,0,1,0,4Z" fill="#06a9db"/><path d="M292.68,176.75a2,2,0,0,1-1.2-3.62,45.48,45.48,0,0,1,20.61-8.53,2,2,0,1,1,.58,4,41.66,41.66,0,0,0-18.8,7.78A2,2,0,0,1,292.68,176.75Z" fill="#06a9db"/><path d="M250.34,169.5h-.13l-12.08-1.84a.84.84,0,0,1-.73-1h0a.87.87,0,0,1,1-.73l12.08,1.84a.85.85,0,1,1-.12,1.7Z" fill="#9fdeed"/><path d="M263.27,185.13h-.13l-29.36-4.44a.87.87,0,0,1-.72-1,.86.86,0,0,1,1-.71h0l29.36,4.44a.85.85,0,0,1,.71,1h0A.84.84,0,0,1,263.27,185.13Z" fill="#9fdeed"/><path d="M280.32,201.28h-.1l-50.66-7.67a.87.87,0,0,1,.08-1.74l.17,0,50.67,7.69a.84.84,0,0,1,.72,1h0A.87.87,0,0,1,280.32,201.28Z" fill="#9fdeed"/><path d="M339.17,201.7a1.44,1.44,0,0,1-.63-.14c-23.09-10.54-45.68-1.72-45.9-1.63a1.5,1.5,0,1,1-1.12-2.79c1-.39,24-9.41,48.27,1.69a1.5,1.5,0,0,1-.62,2.87Z" fill="#06a9db"/><path d="M257.63,293.68a1.49,1.49,0,0,1-1.39-.94c-.36-.89-.75-1.78-1.15-2.65a1.5,1.5,0,0,1,2.72-1.26c.42.91.83,1.85,1.21,2.79a1.5,1.5,0,0,1-.83,1.95A1.55,1.55,0,0,1,257.63,293.68Z" fill="#06a9db" opacity="0.5"/><path d="M253.79,285.89a1.51,1.51,0,0,1-1.32-.79c-9.57-17.8-25-23.77-25.17-23.83a1.5,1.5,0,1,1,1-2.81c.67.25,16.63,6.38,26.76,25.22a1.5,1.5,0,0,1-.61,2A1.53,1.53,0,0,1,253.79,285.89Z" fill="#06a9db" opacity="0.5"/><path d="M236.29,68.05a1.47,1.47,0,0,1-.73-.19,1.51,1.51,0,0,1-.58-2c.51-.91,12.78-22.36,38.67-29a1.5,1.5,0,0,1,.74,2.91c-24.65,6.28-36.67,27.3-36.79,27.52A1.48,1.48,0,0,1,236.29,68.05Z" fill="#06a9db" opacity="0.5"/><path d="M236,233.27,227.52,232v1.73l8.2,1.23h.13a.85.85,0,1,0,.13-1.7Z" fill="#9fdeed"/><path d="M262.26,224l-34.44-5.25v1.73L262,225.61h.14a.84.84,0,0,0,.91-.79.86.86,0,0,0-.8-.91h0Z" fill="#9fdeed"/><path d="M289.53,214.53l-61.42-9.29V207l61.19,9.28h.13a.85.85,0,0,0,.84-.73.87.87,0,0,0-.74-1Z" fill="#9fdeed"/><path d="M267.85,221.1l-40.4,14.13v3.66L269,224.39a1.71,1.71,0,1,0-1.13-3.23Z" fill="#06a9db"/><path d="M279.77,174.11c-10.41-10.66-31.64-29.34-37.47-23.64l-.28.33a1.68,1.68,0,0,0-.61.8l-13,39.4-.26,11.73L242.58,159c3.9,9,15.06,22,22.4,29.53s20.38,19.33,29.32,23.31l-15.1,5.28a1.71,1.71,0,0,0,.57,3.33,1.63,1.63,0,0,0,.57-.1l21-7.35a1.77,1.77,0,0,0,.75-.57,2.91,2.91,0,0,0,.33-.26C308.3,206.47,290.18,184.79,279.77,174.11Zm20.29,35.58c-1.42,1.42-14.37-4.85-32.63-23.6s-24.21-31.72-22.79-33.17a1,1,0,0,1,.67-.2c3.19,0,15.34,6.75,31.95,23.8,18.32,18.73,24.31,31.78,22.8,33.21Z" fill="#06a9db"/><path d="M145.59,61.49a.84.84,0,0,1-.27,0,.93.93,0,0,1-.62-1.17l1-3.19a1.56,1.56,0,0,0-.82-1.87l-1.31-.63a3.45,3.45,0,0,1-1.79-4.11l.76-2.44a.92.92,0,0,1,1.17-.62.94.94,0,0,1,.62,1.17L143.55,51a1.56,1.56,0,0,0,.82,1.87l1.3.63a3.42,3.42,0,0,1,1.8,4.11l-1,3.19A.93.93,0,0,1,145.59,61.49Z" fill="#06a9db" opacity="0.5"/><path d="M266.09,87.68a1,1,0,0,1-.22-2l3.26-.73a1.45,1.45,0,0,0,1.14-1.54l-.1-1.44a3.54,3.54,0,0,1,2.76-3.69l2.5-.56a1,1,0,0,1,1.23.79,1,1,0,0,1-.79,1.22l-2.49.55a1.48,1.48,0,0,0-1.15,1.54l.1,1.45a3.51,3.51,0,0,1-2.75,3.69l-3.26.73A.9.9,0,0,1,266.09,87.68Z" fill="#06a9db" opacity="0.5"/><path d="M178.22,306.6a.34.34,0,0,1-.14,0,.52.52,0,0,1-.37-.64l.94-3.59a1.36,1.36,0,0,0-.78-1.61l-2.13-.92a2.45,2.45,0,0,1-1.39-2.86l.76-2.85a.53.53,0,0,1,.65-.37.52.52,0,0,1,.37.64l-.76,2.85a1.4,1.4,0,0,0,.79,1.62l2.13.92a2.42,2.42,0,0,1,1.39,2.85l-1,3.59A.52.52,0,0,1,178.22,306.6Z" fill="#06a9db" opacity="0.5"/><path d="M51.44,156.55a.92.92,0,0,1-.92-.78l-1.07-6.26a1.56,1.56,0,0,0-1.54-1.3h0l-4.6.08a3.46,3.46,0,0,1-3.46-2.87L39,140.35a.94.94,0,0,1,1.85-.31l.85,5.07a1.58,1.58,0,0,0,1.54,1.31h0l4.61-.09h.06a3.46,3.46,0,0,1,3.39,2.86l1.06,6.26a.94.94,0,0,1-.76,1.09Z" fill="#06a9db" opacity="0.5"/><path d="M52.4,300.94a.92.92,0,0,1-.88-.63.93.93,0,0,1,.58-1.19l2.49-.86a1.58,1.58,0,0,0,1-1.77L55.33,295a3.42,3.42,0,0,1,2.25-3.88L60.81,290a.94.94,0,1,1,.62,1.77l-3.24,1.13a1.55,1.55,0,0,0-1,1.76l.29,1.52A3.46,3.46,0,0,1,55.2,300l-2.49.86A.81.81,0,0,1,52.4,300.94Z" fill="#06a9db" opacity="0.5"/><g opacity="0.5"><path d="M18.88,195.35a22.21,22.21,0,0,0-1.71,2.2" fill="#06a9db"/><path d="M17.17,199.05a1.52,1.52,0,0,1-.84-.25,1.5,1.5,0,0,1-.4-2.09,23.59,23.59,0,0,1,1.84-2.37,1.5,1.5,0,0,1,2.22,2,20.83,20.83,0,0,0-1.58,2A1.49,1.49,0,0,1,17.17,199.05Z" fill="#06a9db"/></g><path d="M279.31,39.17a1.5,1.5,0,0,1-.13-3s.86-.08,2.07-.13h.06a1.5,1.5,0,0,1,.06,3c-1.1.05-1.9.12-1.92.12Z" fill="#06a9db" opacity="0.5"/><path d="M101.87,63.62a1.25,1.25,0,0,1-1.25-1.25c0-7.17-10.17-18.48-10.27-18.59A1.25,1.25,0,1,1,92.2,42.1c.45.49,10.92,12.14,10.92,20.27A1.25,1.25,0,0,1,101.87,63.62Z" fill="#06a9db" opacity="0.5"/><path d="M81.88,322.45l-.17,0a1.25,1.25,0,0,1-1.07-1.4C82.9,304.47,93.33,296,96,294.58a1.25,1.25,0,0,1,1.15,2.22c-2.28,1.18-11.94,9.23-14,24.56A1.26,1.26,0,0,1,81.88,322.45Z" fill="#06a9db" opacity="0.5"/></svg>