<?xml version="1.0" encoding="UTF-8"?>
<svg width="1200pt" height="1200pt" fill="#9d9d9d" version="1.1" viewBox="0 0 1200 1200" xmlns="http://www.w3.org/2000/svg">
 <path d="m1158.9 501.43-141.7-81.203c-14.16-8.1133-30.973-7.2969-43.945 0.66016-15.602-8.3281-64.645-29.242-132.67-7.2344l-1.4023 0.50391c-1.332 0.52734-133.41 52.738-239.65 53.426-106.23-0.68359-238.32-52.895-239.65-53.426l-1.4023-0.50391c-64.883-20.988-112.52-2.0273-130.5 7.4414-13.031-8.1484-30-9.0469-44.27-0.86328l-141.7 81.199c-20.629 11.82-27.77 38.148-15.949 58.777 7.957 13.883 22.465 21.66 37.402 21.66 7.2617 0 14.617-1.8359 21.371-5.7109l141.7-81.203c12.793-7.332 20.387-20.242 21.504-33.898 9.2891-5.1953 47.219-21.602 98.891-5.1133 11.227 4.4102 121.09 47.215 229.09 55.051v53.004h-212.75c-4.6797 0-9.1094-1.5117-12.133 2.0391-3.0234 3.5508-4.3555 6.4688-3.625 11.062l42.383 264.7c1.2227 7.7539 7.9062 10.199 15.742 10.199h389.9c7.8477 0 14.52-3.3477 15.742-11.09l42.383-266.76c0.73047-4.6094-0.60156-5.1602-3.6367-8.7109-2.9922-3.5273-7.4336-1.4375-12.086-1.4375h-201.93v-53.664c96-9.3125 207.68-50.102 218.65-54.422 55.105-17.578 91.523 1.0312 97.738 4.6445 0.98438 13.836 8.8203 26.965 21.758 34.379l141.8 81.203c6.7422 3.875 14.184 5.7109 21.445 5.7109 14.914 0 29.449-7.7773 37.414-21.66 11.832-20.625 4.7148-46.938-15.926-58.758zm-465.14 230.57h-69.742v-60h74.293zm36.543-60h74.832l-9.0859 60h-70.309zm-334.24 0h81.18l4.5586 60h-76.656zm113.18 0h78.77v60h-74.207zm-2.5312-36-4.5586-48h85.859v48zm81.301 132v60h-67.129l-4.5469-60zm36 0h67.211l-4.5469 60h-62.664zm0-132v-48h81.371l-4.5469 48zm-153.85-48 4.5469 48h-83.699l-9.0859-48zm-59.965 180h74.137l4.5586 60h-69.613zm308.47 60 4.5586-60h67.777l-9.0859 60zm91.512-192h-77.328l4.5586-48h81.852z"/>
</svg>
